<svg id="Capa_1" enable-background="new 0 0 512 512" height="512" viewBox="0 0 512 512" width="512" xmlns="http://www.w3.org/2000/svg"><g><g><path d="m504.516 289.003v-66.007c0-4.703-3.812-8.515-8.515-8.515h-30.72c-3.943 0-7.409-2.682-8.323-6.518-5.124-21.508-13.617-41.708-24.882-60.021-2.073-3.37-1.591-7.713 1.206-10.51l21.781-21.781c3.325-3.325 3.325-8.717 0-12.042l-46.674-46.674c-3.325-3.325-8.717-3.325-12.042 0l-21.781 21.781c-2.798 2.798-7.14 3.279-10.51 1.206-18.313-11.265-38.512-19.758-60.021-24.882-3.836-.914-6.518-4.379-6.518-8.323v-30.72c0-4.703-3.812-8.515-8.515-8.515h-66.007c-4.703 0-8.515 3.812-8.515 8.515v30.72c0 3.943-2.682 7.409-6.518 8.323-21.508 5.124-41.708 13.618-60.021 24.882-3.37 2.073-7.713 1.591-10.51-1.206l-21.781-21.781c-3.325-3.325-8.717-3.325-12.042 0l-46.674 46.674c-3.325 3.325-3.325 8.717 0 12.042l21.781 21.781c2.798 2.798 3.279 7.14 1.206 10.51-11.265 18.313-19.758 38.513-24.882 60.021-.914 3.836-4.379 6.518-8.323 6.518h-30.72c-4.703 0-8.515 3.812-8.515 8.515v66.007c0 4.703 3.812 8.515 8.515 8.515h30.72c3.943 0 7.409 2.682 8.323 6.518 5.124 21.508 13.617 41.708 24.882 60.021 2.073 3.37 1.591 7.713-1.206 10.51l-21.781 21.781c-3.325 3.325-3.325 8.717 0 12.042l46.674 46.674c3.325 3.325 8.717 3.325 12.042 0l21.781-21.781c2.798-2.798 7.14-3.279 10.51-1.206 18.313 11.265 38.513 19.758 60.021 24.882 3.836.914 6.518 4.38 6.518 8.323v30.719c0 4.703 3.812 8.515 8.515 8.515h66.007c4.703 0 8.515-3.812 8.515-8.515v-30.719c0-3.943 2.682-7.409 6.518-8.323 21.508-5.124 41.708-13.618 60.021-24.882 3.37-2.073 7.713-1.591 10.51 1.206l21.781 21.781c3.325 3.325 8.717 3.325 12.042 0l46.674-46.674c3.325-3.325 3.325-8.717 0-12.042l-21.781-21.781c-2.798-2.798-3.279-7.14-1.206-10.51 11.265-18.313 19.758-38.513 24.882-60.021.914-3.836 4.379-6.518 8.323-6.518h30.72c4.703 0 8.515-3.812 8.515-8.515z" fill="#a2aee6"/></g><g><path d="m351.321 427.984 6.242 7.915c-16.563 9.379-34.533 16.533-53.53 21.063-3.831.908-6.516 4.38-6.516 8.322v30.721c0 4.699-3.811 8.511-8.511 8.511h-19.955c4.699 0 8.511-3.812 8.511-8.511v-40.102c0-3.941 2.684-7.404 6.516-8.321 21.512-5.119 38.059-12.223 56.727-20.804 3.602-1.658 7.713-1.588 10.516 1.206z" fill="#8795de"/></g><g><path d="m304.033 55.038c19.506 4.65 40.445 13.532 57.367 23.28l-5.594 8.719c-2.804 2.794-7.144 3.283-10.517 1.207-18.309-11.265-38.622-18.467-61.212-25.471-3.762-1.177-6.516-4.38-6.516-8.331v-38.446c0-4.699-3.811-8.511-8.511-8.511h19.955c4.699 0 8.511 3.812 8.511 8.511v30.721c.001 3.941 2.685 7.413 6.517 8.321z" fill="#8795de"/></g><g><path d="m445.327 297.517h19.955c-3.941 0-7.413 2.684-8.321 6.516-5.129 21.512-13.62 41.707-24.884 60.026-2.075 3.372-1.596 7.713 1.207 10.507l21.781 21.781c3.323 3.323 3.323 8.721 0 12.043l-46.676 46.676c-3.323 3.323-8.721 3.323-12.043 0l-3.951-3.951 42.715-42.725c3.323-3.323 3.323-8.721 0-12.043l-21.781-21.781c-2.804-2.794-3.283-7.134-1.207-10.507 11.265-18.319 19.756-38.514 24.884-60.026.908-3.832 4.38-6.516 8.321-6.516z" fill="#8795de"/></g><g><path d="m465.283 214.483h-19.955c-3.941 0-7.413-2.684-8.321-6.515-5.129-21.512-13.62-41.707-24.884-60.026-2.075-3.372-1.596-7.713 1.207-10.507l21.781-21.781c3.323-3.323 3.323-8.721 0-12.043l-42.715-42.715 3.951-3.961c3.323-3.323 8.721-3.323 12.043 0l46.676 46.676c3.323 3.323 3.323 8.721 0 12.043l-21.781 21.781c-2.804 2.794-3.283 7.134-1.207 10.507 11.265 18.319 19.756 38.514 24.884 60.026.908 3.831 4.38 6.515 8.321 6.515z" fill="#8795de"/></g><g><path d="m504.515 222.994v66.013c0 4.7-3.811 8.511-8.511 8.511h-19.955c4.7 0 8.511-3.811 8.511-8.511v-66.013c0-4.7-3.812-8.511-8.511-8.511h19.955c4.7 0 8.511 3.811 8.511 8.511z" fill="#8795de"/></g><g><circle cx="256" cy="256" fill="#faf7f7" r="152.992"/></g><g><path d="m408.989 256c0 84.491-68.497 152.989-152.989 152.989-23.727 0-46.197-5.398-66.232-15.046 14.368 4.47 29.644 6.875 45.489 6.875 84.491 0 152.989-68.497 152.989-152.989 0-60.754-35.421-113.237-86.736-137.932 62.27 19.376 107.479 77.456 107.479 146.103z" fill="#ede1dd"/></g><g><g><path d="m234.739 326.207c-6.423 0-12.607-2.493-17.239-6.97l-41.313-39.929c-9.85-9.522-10.118-25.227-.598-35.078 9.521-9.849 25.222-10.122 35.079-.598l23.063 22.29 66.615-72.15c9.293-10.067 24.988-10.693 35.055-1.399 10.065 9.294 10.692 24.989 1.397 35.055l-83.832 90.798c-4.529 4.907-10.845 7.779-17.52 7.97-.235.007-.471.011-.707.011z" fill="#a6e7f0"/></g></g><g><g><path d="m336.8 227.434-83.833 90.797c-4.53 4.899-10.846 7.773-17.521 7.962-.24.01-.469.01-.708.01-6.426 0-12.602-2.494-17.242-6.964l-3.103-3.003c5.717-.938 10.995-3.762 14.967-8.062l88.483-95.836c6.705-7.264 8.521-17.301 5.598-26.062 4.33.858 8.481 2.884 11.963 6.096 10.066 9.299 10.685 24.994 1.396 35.062z" fill="#6bd9e7"/></g></g><g><path d="m496.001 206.998h-30.719c-.499 0-.937-.323-1.044-.769-5.232-21.966-13.908-42.896-25.787-62.208-.264-.428-.212-.962.124-1.297l21.781-21.781c3.022-3.023 4.686-7.04 4.686-11.313 0-4.274-1.664-8.292-4.686-11.313l-46.674-46.673c-3.021-3.023-7.039-4.687-11.313-4.687-4.273 0-8.29 1.664-11.313 4.686l-21.781 21.781c-.336.336-.871.388-1.297.124-19.312-11.879-40.242-20.555-62.208-25.787-.445-.106-.769-.545-.769-1.043v-30.719c.001-8.822-7.176-15.999-15.998-15.999h-66.007c-8.821 0-15.999 7.177-15.999 15.999v30.719c0 .499-.323.937-.769 1.043-21.966 5.233-42.896 13.908-62.208 25.787-.427.265-.963.213-1.297-.124l-21.781-21.781c-3.023-3.022-7.04-4.686-11.313-4.686-4.274 0-8.292 1.664-11.313 4.686l-46.671 46.675c-3.023 3.021-4.687 7.039-4.687 11.313 0 4.273 1.664 8.29 4.686 11.313l21.781 21.781c.336.335.388.869.124 1.297-11.879 19.312-20.555 40.242-25.787 62.208-.106.445-.545.769-1.044.769h-30.719c-8.822-.001-15.999 7.176-15.999 15.998v66.007c0 8.821 7.177 15.999 15.999 15.999h30.719c.499 0 .937.323 1.044.769 5.232 21.966 13.908 42.896 25.787 62.208.264.428.212.962-.124 1.297l-21.781 21.782c-3.022 3.022-4.686 7.04-4.686 11.313 0 4.274 1.664 8.292 4.686 11.313l46.674 46.673c3.021 3.022 7.039 4.687 11.313 4.687 4.273 0 8.29-1.664 11.313-4.686l21.781-21.781c.334-.338.87-.39 1.297-.124 19.311 11.878 40.241 20.555 62.21 25.788.444.106.767.545.767 1.043v30.719c0 8.821 7.177 15.999 15.999 15.999h66.007c8.821 0 15.999-7.177 15.999-15.999v-30.719c0-.498.323-.936.769-1.043 21.967-5.233 42.896-13.91 62.208-25.788.426-.265.962-.213 1.297.124l21.781 21.781c3.023 3.021 7.04 4.686 11.313 4.686 4.274 0 8.292-1.664 11.312-4.686l11.01-11.01c2.923-2.922 2.923-7.661.001-10.583-2.923-2.922-7.662-2.923-10.583-.001l-11.012 11.011c-.249.249-.534.302-.729.302s-.479-.053-.729-.303l-21.781-21.781c-5.258-5.257-13.369-6.198-19.723-2.289-17.956 11.046-37.415 19.113-57.833 23.978-7.223 1.719-12.269 8.135-12.269 15.602v30.719c0 .569-.463 1.032-1.032 1.032h-66.007c-.569 0-1.032-.463-1.032-1.032v-30.719c0-7.467-5.045-13.883-12.267-15.602-20.42-4.865-39.879-12.932-57.835-23.978-6.356-3.907-14.465-2.968-19.723 2.289l-21.781 21.781c-.249.25-.534.303-.729.303s-.479-.053-.729-.303l-46.675-46.674c-.249-.249-.302-.534-.302-.729s.053-.479.303-.729l21.781-21.781c5.256-5.257 6.197-13.367 2.289-19.723-11.047-17.957-19.113-37.416-23.977-57.835-1.721-7.222-8.137-12.267-15.603-12.267h-30.718c-.569 0-1.032-.463-1.032-1.032v-66.007c0-.569.463-1.032 1.032-1.032h30.719c7.466 0 13.882-5.044 15.603-12.267 4.864-20.419 12.93-39.878 23.977-57.835 3.908-6.356 2.967-14.466-2.289-19.723l-21.781-21.781c-.25-.249-.303-.534-.303-.729s.053-.479.303-.729l46.674-46.675c.249-.249.534-.302.729-.302s.479.053.729.303l21.781 21.781c5.258 5.255 13.367 6.197 19.723 2.289 17.957-11.047 37.416-19.113 57.835-23.977 7.222-1.721 12.267-8.137 12.267-15.603v-30.719c0-.569.463-1.032 1.032-1.032h66.007c.569 0 1.032.463 1.032 1.032v30.719c0 7.466 5.044 13.882 12.267 15.603 20.419 4.864 39.878 12.93 57.835 23.977 6.356 3.907 14.465 2.968 19.723-2.289l21.781-21.781c.249-.25.534-.303.729-.303s.479.053.729.303l46.675 46.674c.249.249.302.534.302.729s-.053.479-.303.729l-21.781 21.781c-5.256 5.257-6.197 13.367-2.289 19.723 11.047 17.957 19.113 37.416 23.977 57.835 1.721 7.222 8.137 12.267 15.603 12.267h30.719c.569 0 1.032.463 1.032 1.032v66.007c0 .569-.463 1.032-1.032 1.032h-30.719c-7.466 0-13.882 5.044-15.603 12.267-4.864 20.419-12.93 39.878-23.977 57.835-3.908 6.356-2.967 14.466 2.289 19.723l21.781 21.781c.25.249.303.534.303.729s-.053.479-.303.729l-11.136 11.136c-2.922 2.923-2.922 7.661 0 10.584 2.922 2.92 7.66 2.922 10.584 0l11.135-11.136c3.023-3.021 4.687-7.039 4.687-11.313 0-4.273-1.664-8.29-4.686-11.313l-21.781-21.782c-.336-.335-.388-.869-.124-1.297 11.879-19.312 20.555-40.242 25.787-62.208.106-.445.545-.769 1.044-.769h30.719c8.821 0 15.999-7.177 15.999-15.999v-66.007c-.003-8.822-7.18-15.999-16.002-15.999z"/><path d="m105.754 226.031c-4.088-.614-7.892 2.22-8.497 6.308-1.151 7.781-1.733 15.741-1.733 23.661 0 88.487 71.989 160.476 160.476 160.476s160.476-71.989 160.476-160.476-71.989-160.476-160.476-160.476c-32.758 0-64.266 9.807-91.119 28.361-26.226 18.121-46.295 43.296-58.046 72.825l-.303.768c-1.517 3.844.369 8.191 4.214 9.708 3.843 1.516 8.191-.369 9.708-4.214l.295-.747c10.648-26.758 28.851-49.589 52.639-66.026 24.341-16.819 52.907-25.708 82.612-25.708 80.234 0 145.509 65.275 145.509 145.509s-65.275 145.509-145.509 145.509-145.509-65.275-145.509-145.509c0-7.19.529-14.414 1.572-21.473.604-4.088-2.22-7.892-6.309-8.496z"/><path d="m234.74 333.69c.308 0 .616-.004.922-.013 8.637-.248 16.948-4.029 22.804-10.373l83.83-90.798c5.851-6.337 8.885-14.573 8.542-23.191-.344-8.618-4.022-16.587-10.36-22.438-13.081-12.078-33.552-11.261-45.63 1.82l-61.422 66.524-17.557-16.97c-12.804-12.373-33.287-12.022-45.66.78s-12.024 33.283.778 45.658l41.313 39.929c6.053 5.85 14.022 9.072 22.44 9.072zm-53.77-84.259c3.394-3.511 7.925-5.276 12.46-5.276 4.337 0 8.68 1.615 12.038 4.858l23.063 22.29c1.448 1.399 3.411 2.15 5.413 2.1 2.014-.057 3.919-.924 5.286-2.404l66.615-72.15c6.481-7.019 17.463-7.454 24.48-.977 3.399 3.139 5.373 7.414 5.557 12.039.184 4.624-1.443 9.042-4.583 12.442l-83.833 90.8c-3.14 3.403-7.6 5.431-12.236 5.564-4.686.134-9.165-1.608-12.531-4.86l-41.312-39.929c-6.867-6.64-7.054-17.629-.417-24.497z"/></g></g></svg>